<svg width="34" height="50" viewBox="0 0 34 50" fill="none" xmlns="http://www.w3.org/2000/svg">
<path fill-rule="evenodd" clip-rule="evenodd" d="M11.3504 0.5C12.2204 0.5 12.8204 0.54 12.8504 0.6C12.8804 0.65 13.1404 0.73 13.4304 0.76C13.7104 0.79 14.2704 0.88 14.6504 0.97C15.0304 1.05 15.5904 1.2 15.8804 1.31C16.1604 1.41 16.7004 1.65 17.0704 1.84C17.4504 2.03 18.0204 2.38 18.3504 2.62C18.6804 2.87 19.1704 3.29 19.4404 3.56C19.7104 3.83 20.0904 4.28 20.3004 4.55C20.5004 4.82 20.7804 5.25 20.9204 5.5C21.0704 5.75 21.3504 6.45 21.5604 7.05C21.9204 8.14 21.9304 8.18 22.0104 10.35C22.0604 11.56 22.1404 13.81 22.2004 15.35C22.2504 16.95 22.3604 18.45 22.4404 18.85C22.5204 19.23 22.6704 19.82 22.7904 20.15C22.9104 20.48 23.1204 20.93 23.2804 21.15C23.4304 21.38 23.7404 21.65 24.0004 21.77C24.2504 21.9 24.7904 22.07 25.2004 22.16C25.8104 22.28 26.0704 22.29 26.5504 22.2C26.8804 22.14 27.4204 21.97 27.7504 21.81C28.0804 21.66 28.5904 21.34 29.4004 20.7V4H33.1504L33.2304 15.02C33.2804 21.09 33.2804 29.34 33.1804 40.65L32.9304 41.55C32.7904 42.04 32.5704 42.74 32.4304 43.1C32.3004 43.46 32.0204 44.04 31.8304 44.4C31.6304 44.76 31.1904 45.38 30.8604 45.78C30.5204 46.18 29.8904 46.83 29.4504 47.21C28.8804 47.71 28.3404 48.07 27.5504 48.45C26.9404 48.75 26.1804 49.06 25.8504 49.14C25.5204 49.22 24.9904 49.31 24.6704 49.34C24.3604 49.37 24.1004 49.44 24.1004 49.5C24.1004 49.56 23.5104 49.59 22.4704 49.57C21.2904 49.54 20.5904 49.48 19.9004 49.33C19.3804 49.21 18.5404 48.97 18.0504 48.8C17.5604 48.62 16.8604 48.32 16.5004 48.12C16.1404 47.92 15.5304 47.5 15.1504 47.2C14.7704 46.89 14.2204 46.35 13.9404 45.99C13.6604 45.64 13.2704 45.08 13.0704 44.75C12.8704 44.42 12.5404 43.68 12.3404 43.1C12.0104 42.12 11.9804 41.93 11.8904 40.25C11.8404 39.26 11.7604 37.01 11.7004 35.25C11.6304 32.71 11.5704 31.86 11.4104 31.15C11.3004 30.65 11.1404 30.05 11.0504 29.8C10.9604 29.55 10.7804 29.19 10.6504 29C10.5204 28.81 10.2204 28.54 9.98036 28.41C9.74036 28.27 9.32036 28.11 9.05036 28.03C8.77036 27.96 8.25036 27.9 7.87036 27.9C7.47036 27.9 6.95036 27.98 6.57036 28.1C6.20036 28.23 5.68036 28.51 4.55036 29.37L4.50036 46H0.750357L0.670356 34.18C0.620356 27.67 0.620357 19.51 0.650357 16.05C0.710357 10.52 0.740357 9.65 0.900357 8.9C1.00036 8.43 1.23036 7.64 1.41036 7.15C1.59036 6.65 1.97036 5.88 2.25036 5.43C2.52036 4.97 3.04036 4.28 3.40036 3.88C3.76036 3.48 4.41036 2.89 4.85036 2.57C5.29036 2.24 5.94036 1.83 6.30036 1.65C6.66036 1.47 7.31036 1.21 7.75036 1.07C8.19036 0.94 8.82036 0.79 9.15036 0.75C9.48036 0.71 9.79036 0.64 9.83036 0.59C9.87036 0.54 10.5604 0.5 11.3504 0.5ZM8.55036 4.85C8.27036 4.95 7.89036 5.1 7.70036 5.2C7.51036 5.3 7.11036 5.6 6.81036 5.86C6.51036 6.13 6.08036 6.62 5.85036 6.95C5.61036 7.28 5.33036 7.74 5.21036 7.97C5.10036 8.21 4.89036 8.75 4.75036 9.17L4.50036 9.95C4.50036 22.09 4.53036 24.6 4.60036 24.6C4.65036 24.6 5.12036 24.48 5.62036 24.33C6.42036 24.1 6.74036 24.06 7.85036 24.06C8.92036 24.06 9.29036 24.1 9.95036 24.29C10.3904 24.42 11.0204 24.64 11.3504 24.79C11.6804 24.94 12.2004 25.24 12.5004 25.47C12.8004 25.69 13.2404 26.12 13.4704 26.41C13.7004 26.71 14.0404 27.26 14.2304 27.65C14.4204 28.04 14.6704 28.62 14.7804 28.95C14.8904 29.28 15.0804 30 15.2004 30.55C15.3704 31.36 15.4304 32.15 15.5104 34.65C15.5604 36.35 15.6404 38.58 15.6904 39.6C15.7604 41.31 15.7904 41.5 16.0604 42.15C16.2204 42.54 16.5304 43.1 16.7504 43.4C17.0004 43.74 17.4404 44.14 17.9004 44.46C18.3204 44.74 19.0004 45.08 19.4504 45.23C19.9304 45.4 20.6704 45.55 21.3004 45.61C22.0304 45.69 22.6904 45.69 23.4504 45.62C24.0604 45.56 24.8604 45.41 25.2504 45.29C25.6404 45.16 26.2004 44.89 26.5004 44.69C26.8004 44.49 27.3104 44.05 27.6204 43.71C28.0204 43.29 28.3404 42.81 28.6404 42.17C28.8804 41.67 29.1504 40.98 29.2404 40.65C29.3904 40.11 29.4104 39.29 29.3804 32.83C29.3604 28.86 29.3304 25.59 29.3004 25.55C29.2704 25.51 28.9104 25.58 28.5004 25.7C28.0904 25.82 27.3704 25.97 26.9004 26.03C26.2604 26.11 25.8204 26.11 25.1004 26.01C24.5804 25.95 23.7204 25.75 23.2004 25.57C22.6804 25.4 22.0004 25.09 21.7004 24.89C21.4004 24.7 20.9204 24.29 20.6504 23.99C20.3804 23.69 19.9604 23.08 19.7404 22.65C19.5104 22.21 19.2304 21.56 19.1104 21.2C19.0004 20.84 18.8404 20.26 18.7604 19.9C18.6804 19.54 18.5604 18.87 18.5104 18.4C18.4504 17.93 18.3604 15.66 18.3004 13.35C18.2404 11.04 18.1404 8.95 18.0904 8.7C18.0304 8.45 17.8604 7.97 17.6904 7.62C17.5304 7.28 17.1604 6.74 16.8704 6.42C16.5704 6.11 16.1104 5.71 15.8404 5.53C15.5704 5.35 15.0804 5.11 14.7504 5C14.4204 4.88 13.8304 4.73 13.4504 4.65C13.0704 4.58 12.2304 4.49 11.6004 4.46C10.8304 4.42 10.2204 4.45 9.75036 4.54C9.37036 4.62 8.82036 4.76 8.55036 4.85Z" fill="black"/>
</svg>
